<?xml version="1.0" encoding="utf-8"?>
<svg version="1.1" id="Слой_1" xmlns="http://www.w3.org/2000/svg" x="0px" y="0px" width="10px" height="10px" viewBox="5 5 10 10" style="enable-background:new 5 5 10 10;" xmlns:bx="https://boxy-svg.com"><defs><bx:export><bx:file format="svg"/></bx:export></defs><style type="text/css">

	.st0{fill:#4D657F;}

</style><path class="st0" d="M6.494,8.462H5v3.063h1.5l2.875,3.161V5.3L6.494,8.462z"/><path class="st0" d="M12.501,9.994c0-0.994-0.788-1.838-1.876-2.157v4.313C11.713,11.831,12.501,10.993,12.501,9.994z"/><path class="st0" d="M10.625,13.944V15C13.119,14.525,15,12.463,15,10c0-2.469-1.881-4.531-4.375-5v1.05 C12.506,6.506,13.9,8.025,13.9,10C13.9,11.969,12.506,13.487,10.625,13.944z"/><rect x="27.762" y="8.976" width="1.804" height="10.482" style="fill: rgb(77, 101, 127); stroke: rgba(0, 0, 0, 0); transform-origin: 28.664px 14.217px 0px;" transform="matrix(0.838671, 0.544639, -0.544639, 0.838671, -17.847662, -4.204953)"/></svg>